<mxfile host="app.diagrams.net" modified="2024-03-28T16:58:37.533Z" agent="Mozilla/5.0 (Windows NT 10.0; Win64; x64; rv:124.0) Gecko/20100101 Firefox/124.0" etag="G9sRjCeNjh4o94PM2o6u" version="24.0.1" type="device">
  <diagram name="Pagina-1" id="FaraXxG8khgE2FI0JZpe">
    <mxGraphModel dx="1290" dy="558" grid="1" gridSize="10" guides="1" tooltips="1" connect="1" arrows="1" fold="1" page="1" pageScale="1" pageWidth="827" pageHeight="1169" math="0" shadow="0">
      <root>
        <mxCell id="0" />
        <mxCell id="1" parent="0" />
        <mxCell id="bKmc23ovCByHPiUJgdwD-1" value="ID" style="rounded=0;whiteSpace=wrap;html=1;fillColor=#00FF00;" parent="1" vertex="1">
          <mxGeometry x="40" y="40" width="40" height="30" as="geometry" />
        </mxCell>
        <mxCell id="bKmc23ovCByHPiUJgdwD-2" value="nome" style="rounded=0;whiteSpace=wrap;html=1;" parent="1" vertex="1">
          <mxGeometry x="80" y="40" width="70" height="30" as="geometry" />
        </mxCell>
        <mxCell id="bKmc23ovCByHPiUJgdwD-3" value="cognome" style="rounded=0;whiteSpace=wrap;html=1;" parent="1" vertex="1">
          <mxGeometry x="150" y="40" width="70" height="30" as="geometry" />
        </mxCell>
        <mxCell id="bKmc23ovCByHPiUJgdwD-4" value="password" style="rounded=0;whiteSpace=wrap;html=1;" parent="1" vertex="1">
          <mxGeometry x="290" y="40" width="70" height="30" as="geometry" />
        </mxCell>
        <mxCell id="bKmc23ovCByHPiUJgdwD-5" value="voto" style="rounded=0;whiteSpace=wrap;html=1;" parent="1" vertex="1">
          <mxGeometry x="430" y="40" width="70" height="30" as="geometry" />
        </mxCell>
        <mxCell id="bKmc23ovCByHPiUJgdwD-6" value="mail" style="rounded=0;whiteSpace=wrap;html=1;" parent="1" vertex="1">
          <mxGeometry x="220" y="40" width="70" height="30" as="geometry" />
        </mxCell>
        <mxCell id="bKmc23ovCByHPiUJgdwD-7" value="materia" style="rounded=0;whiteSpace=wrap;html=1;" parent="1" vertex="1">
          <mxGeometry x="360" y="40" width="70" height="30" as="geometry" />
        </mxCell>
        <mxCell id="bKmc23ovCByHPiUJgdwD-8" value="CAP" style="rounded=0;whiteSpace=wrap;html=1;" parent="1" vertex="1">
          <mxGeometry x="570" y="40" width="70" height="30" as="geometry" />
        </mxCell>
        <mxCell id="bKmc23ovCByHPiUJgdwD-9" value="indirizzo" style="rounded=0;whiteSpace=wrap;html=1;" parent="1" vertex="1">
          <mxGeometry x="500" y="40" width="70" height="30" as="geometry" />
        </mxCell>
        <mxCell id="bKmc23ovCByHPiUJgdwD-170" style="edgeStyle=orthogonalEdgeStyle;rounded=0;orthogonalLoop=1;jettySize=auto;html=1;exitX=0.5;exitY=1;exitDx=0;exitDy=0;entryX=0.75;entryY=1;entryDx=0;entryDy=0;" parent="1" source="bKmc23ovCByHPiUJgdwD-12" target="bKmc23ovCByHPiUJgdwD-100" edge="1">
          <mxGeometry relative="1" as="geometry">
            <Array as="points">
              <mxPoint x="670" y="350" />
              <mxPoint x="70" y="350" />
            </Array>
          </mxGeometry>
        </mxCell>
        <mxCell id="bKmc23ovCByHPiUJgdwD-12" value="classe" style="rounded=0;whiteSpace=wrap;html=1;fillColor=#FFFF00;" parent="1" vertex="1">
          <mxGeometry x="640" y="40" width="60" height="30" as="geometry" />
        </mxCell>
        <mxCell id="bKmc23ovCByHPiUJgdwD-14" value="STUDENTE" style="text;html=1;align=center;verticalAlign=middle;resizable=0;points=[];autosize=1;strokeColor=none;fillColor=none;" parent="1" vertex="1">
          <mxGeometry x="30" y="10" width="90" height="30" as="geometry" />
        </mxCell>
        <mxCell id="bKmc23ovCByHPiUJgdwD-64" value="ID" style="rounded=0;whiteSpace=wrap;html=1;" parent="1" vertex="1">
          <mxGeometry x="40" y="640" width="40" height="30" as="geometry" />
        </mxCell>
        <mxCell id="bKmc23ovCByHPiUJgdwD-169" style="edgeStyle=orthogonalEdgeStyle;rounded=0;orthogonalLoop=1;jettySize=auto;html=1;exitX=0.5;exitY=1;exitDx=0;exitDy=0;entryX=0.75;entryY=1;entryDx=0;entryDy=0;" parent="1" source="bKmc23ovCByHPiUJgdwD-65" target="bKmc23ovCByHPiUJgdwD-1" edge="1">
          <mxGeometry relative="1" as="geometry">
            <Array as="points">
              <mxPoint x="115" y="700" />
              <mxPoint x="20" y="700" />
              <mxPoint x="20" y="90" />
              <mxPoint x="70" y="90" />
            </Array>
          </mxGeometry>
        </mxCell>
        <mxCell id="bKmc23ovCByHPiUJgdwD-65" value="IDStudente" style="rounded=0;whiteSpace=wrap;html=1;fillColor=#00FF00;" parent="1" vertex="1">
          <mxGeometry x="80" y="640" width="70" height="30" as="geometry" />
        </mxCell>
        <mxCell id="bKmc23ovCByHPiUJgdwD-174" style="edgeStyle=orthogonalEdgeStyle;rounded=0;orthogonalLoop=1;jettySize=auto;html=1;exitX=0.5;exitY=1;exitDx=0;exitDy=0;entryX=0.25;entryY=1;entryDx=0;entryDy=0;" parent="1" source="bKmc23ovCByHPiUJgdwD-66" target="bKmc23ovCByHPiUJgdwD-88" edge="1">
          <mxGeometry relative="1" as="geometry">
            <Array as="points">
              <mxPoint x="185" y="690" />
              <mxPoint x="30" y="690" />
              <mxPoint x="30" y="460" />
              <mxPoint x="50" y="460" />
            </Array>
          </mxGeometry>
        </mxCell>
        <mxCell id="bKmc23ovCByHPiUJgdwD-66" value="IDAzienda" style="rounded=0;whiteSpace=wrap;html=1;fillColor=#FF3333;" parent="1" vertex="1">
          <mxGeometry x="150" y="640" width="70" height="30" as="geometry" />
        </mxCell>
        <mxCell id="bKmc23ovCByHPiUJgdwD-68" value="voto" style="rounded=0;whiteSpace=wrap;html=1;" parent="1" vertex="1">
          <mxGeometry x="220" y="640" width="70" height="30" as="geometry" />
        </mxCell>
        <mxCell id="bKmc23ovCByHPiUJgdwD-72" value="commento" style="rounded=0;whiteSpace=wrap;html=1;" parent="1" vertex="1">
          <mxGeometry x="290" y="640" width="70" height="30" as="geometry" />
        </mxCell>
        <mxCell id="bKmc23ovCByHPiUJgdwD-75" value="RECENSIONE" style="text;html=1;align=center;verticalAlign=middle;resizable=0;points=[];autosize=1;strokeColor=none;fillColor=none;" parent="1" vertex="1">
          <mxGeometry x="30" y="610" width="100" height="30" as="geometry" />
        </mxCell>
        <mxCell id="bKmc23ovCByHPiUJgdwD-87" value="TUTOR" style="text;html=1;align=center;verticalAlign=middle;resizable=0;points=[];autosize=1;strokeColor=none;fillColor=none;" parent="1" vertex="1">
          <mxGeometry x="30" y="490" width="60" height="30" as="geometry" />
        </mxCell>
        <mxCell id="bKmc23ovCByHPiUJgdwD-88" value="ID" style="rounded=0;whiteSpace=wrap;html=1;fillColor=#FF3333;" parent="1" vertex="1">
          <mxGeometry x="40" y="400" width="40" height="30" as="geometry" />
        </mxCell>
        <mxCell id="bKmc23ovCByHPiUJgdwD-89" value="nome" style="rounded=0;whiteSpace=wrap;html=1;" parent="1" vertex="1">
          <mxGeometry x="80" y="400" width="70" height="30" as="geometry" />
        </mxCell>
        <mxCell id="bKmc23ovCByHPiUJgdwD-90" value="specializzazione" style="rounded=0;whiteSpace=wrap;html=1;" parent="1" vertex="1">
          <mxGeometry x="150" y="400" width="90" height="30" as="geometry" />
        </mxCell>
        <mxCell id="bKmc23ovCByHPiUJgdwD-91" value="descrizione" style="rounded=0;whiteSpace=wrap;html=1;" parent="1" vertex="1">
          <mxGeometry x="240" y="400" width="70" height="30" as="geometry" />
        </mxCell>
        <mxCell id="bKmc23ovCByHPiUJgdwD-95" value="CAP" style="rounded=0;whiteSpace=wrap;html=1;" parent="1" vertex="1">
          <mxGeometry x="380" y="400" width="70" height="30" as="geometry" />
        </mxCell>
        <mxCell id="bKmc23ovCByHPiUJgdwD-96" value="indirizzo" style="rounded=0;whiteSpace=wrap;html=1;" parent="1" vertex="1">
          <mxGeometry x="310" y="400" width="70" height="30" as="geometry" />
        </mxCell>
        <mxCell id="bKmc23ovCByHPiUJgdwD-99" value="AZIENDA" style="text;html=1;align=center;verticalAlign=middle;resizable=0;points=[];autosize=1;strokeColor=none;fillColor=none;" parent="1" vertex="1">
          <mxGeometry x="30" y="370" width="70" height="30" as="geometry" />
        </mxCell>
        <mxCell id="bKmc23ovCByHPiUJgdwD-100" value="nome" style="rounded=0;whiteSpace=wrap;html=1;fillColor=#FFFF00;" parent="1" vertex="1">
          <mxGeometry x="40" y="280" width="40" height="30" as="geometry" />
        </mxCell>
        <mxCell id="bKmc23ovCByHPiUJgdwD-101" value="anno" style="rounded=0;whiteSpace=wrap;html=1;fillColor=#FF0080;" parent="1" vertex="1">
          <mxGeometry x="80" y="280" width="70" height="30" as="geometry" />
        </mxCell>
        <mxCell id="bKmc23ovCByHPiUJgdwD-102" value="indirizzo" style="rounded=0;whiteSpace=wrap;html=1;" parent="1" vertex="1">
          <mxGeometry x="150" y="280" width="70" height="30" as="geometry" />
        </mxCell>
        <mxCell id="bKmc23ovCByHPiUJgdwD-105" value="periodoStage" style="rounded=0;whiteSpace=wrap;html=1;" parent="1" vertex="1">
          <mxGeometry x="220" y="280" width="80" height="30" as="geometry" />
        </mxCell>
        <mxCell id="bKmc23ovCByHPiUJgdwD-111" value="CLASSE" style="text;html=1;align=center;verticalAlign=middle;resizable=0;points=[];autosize=1;strokeColor=none;fillColor=none;" parent="1" vertex="1">
          <mxGeometry x="30" y="250" width="70" height="30" as="geometry" />
        </mxCell>
        <mxCell id="bKmc23ovCByHPiUJgdwD-112" value="ID" style="rounded=0;whiteSpace=wrap;html=1;fillColor=#66FFFF;" parent="1" vertex="1">
          <mxGeometry x="40" y="160" width="40" height="30" as="geometry" />
        </mxCell>
        <mxCell id="bKmc23ovCByHPiUJgdwD-113" value="nome" style="rounded=0;whiteSpace=wrap;html=1;" parent="1" vertex="1">
          <mxGeometry x="80" y="160" width="70" height="30" as="geometry" />
        </mxCell>
        <mxCell id="bKmc23ovCByHPiUJgdwD-114" value="cognome" style="rounded=0;whiteSpace=wrap;html=1;" parent="1" vertex="1">
          <mxGeometry x="150" y="160" width="70" height="30" as="geometry" />
        </mxCell>
        <mxCell id="bKmc23ovCByHPiUJgdwD-117" value="mail" style="rounded=0;whiteSpace=wrap;html=1;" parent="1" vertex="1">
          <mxGeometry x="220" y="160" width="70" height="30" as="geometry" />
        </mxCell>
        <mxCell id="bKmc23ovCByHPiUJgdwD-171" style="edgeStyle=orthogonalEdgeStyle;rounded=0;orthogonalLoop=1;jettySize=auto;html=1;exitX=0.5;exitY=1;exitDx=0;exitDy=0;entryX=0.5;entryY=1;entryDx=0;entryDy=0;" parent="1" source="bKmc23ovCByHPiUJgdwD-121" target="bKmc23ovCByHPiUJgdwD-100" edge="1">
          <mxGeometry relative="1" as="geometry">
            <Array as="points">
              <mxPoint x="325" y="340" />
              <mxPoint x="60" y="340" />
            </Array>
          </mxGeometry>
        </mxCell>
        <mxCell id="bKmc23ovCByHPiUJgdwD-121" value="classe" style="rounded=0;whiteSpace=wrap;html=1;fillColor=#FFFF00;" parent="1" vertex="1">
          <mxGeometry x="290" y="160" width="70" height="30" as="geometry" />
        </mxCell>
        <mxCell id="bKmc23ovCByHPiUJgdwD-123" value="AMMINISTRATORE" style="text;html=1;align=center;verticalAlign=middle;resizable=0;points=[];autosize=1;strokeColor=none;fillColor=none;" parent="1" vertex="1">
          <mxGeometry x="30" y="130" width="130" height="30" as="geometry" />
        </mxCell>
        <mxCell id="emnBRrmAYDnH4hSOznNv-8" style="edgeStyle=orthogonalEdgeStyle;rounded=0;orthogonalLoop=1;jettySize=auto;html=1;entryX=0;entryY=1;entryDx=0;entryDy=0;exitX=0.5;exitY=1;exitDx=0;exitDy=0;" edge="1" parent="1" source="bKmc23ovCByHPiUJgdwD-124" target="bKmc23ovCByHPiUJgdwD-1">
          <mxGeometry relative="1" as="geometry">
            <Array as="points">
              <mxPoint x="115" y="820" />
              <mxPoint x="10" y="820" />
              <mxPoint x="10" y="120" />
              <mxPoint x="40" y="120" />
            </Array>
          </mxGeometry>
        </mxCell>
        <mxCell id="bKmc23ovCByHPiUJgdwD-124" value="IDStudente" style="rounded=0;whiteSpace=wrap;html=1;fillColor=#00FF00;" parent="1" vertex="1">
          <mxGeometry x="80" y="760" width="70" height="30" as="geometry" />
        </mxCell>
        <mxCell id="bKmc23ovCByHPiUJgdwD-125" value="giorno" style="rounded=0;whiteSpace=wrap;html=1;fillColor=#0000FF;" parent="1" vertex="1">
          <mxGeometry x="150" y="760" width="70" height="30" as="geometry" />
        </mxCell>
        <mxCell id="bKmc23ovCByHPiUJgdwD-126" value="entrataMatt" style="rounded=0;whiteSpace=wrap;html=1;" parent="1" vertex="1">
          <mxGeometry x="220" y="760" width="70" height="30" as="geometry" />
        </mxCell>
        <mxCell id="bKmc23ovCByHPiUJgdwD-127" value="entrataPom" style="rounded=0;whiteSpace=wrap;html=1;" parent="1" vertex="1">
          <mxGeometry x="360" y="760" width="70" height="30" as="geometry" />
        </mxCell>
        <mxCell id="bKmc23ovCByHPiUJgdwD-128" value="descrizione" style="rounded=0;whiteSpace=wrap;html=1;" parent="1" vertex="1">
          <mxGeometry x="500" y="760" width="70" height="30" as="geometry" />
        </mxCell>
        <mxCell id="bKmc23ovCByHPiUJgdwD-129" value="uscitaMatt" style="rounded=0;whiteSpace=wrap;html=1;" parent="1" vertex="1">
          <mxGeometry x="290" y="760" width="70" height="30" as="geometry" />
        </mxCell>
        <mxCell id="bKmc23ovCByHPiUJgdwD-130" value="uscitaPom" style="rounded=0;whiteSpace=wrap;html=1;" parent="1" vertex="1">
          <mxGeometry x="430" y="760" width="70" height="30" as="geometry" />
        </mxCell>
        <mxCell id="bKmc23ovCByHPiUJgdwD-132" value="ruolo" style="rounded=0;whiteSpace=wrap;html=1;" parent="1" vertex="1">
          <mxGeometry x="570" y="760" width="70" height="30" as="geometry" />
        </mxCell>
        <mxCell id="bKmc23ovCByHPiUJgdwD-135" value="DIARIO" style="text;html=1;align=center;verticalAlign=middle;resizable=0;points=[];autosize=1;strokeColor=none;fillColor=none;" parent="1" vertex="1">
          <mxGeometry x="35" y="730" width="60" height="30" as="geometry" />
        </mxCell>
        <mxCell id="bKmc23ovCByHPiUJgdwD-136" value="ID" style="rounded=0;whiteSpace=wrap;html=1;" parent="1" vertex="1">
          <mxGeometry x="40" y="520" width="40" height="30" as="geometry" />
        </mxCell>
        <mxCell id="bKmc23ovCByHPiUJgdwD-137" value="nome" style="rounded=0;whiteSpace=wrap;html=1;" parent="1" vertex="1">
          <mxGeometry x="80" y="520" width="70" height="30" as="geometry" />
        </mxCell>
        <mxCell id="bKmc23ovCByHPiUJgdwD-138" value="cognome" style="rounded=0;whiteSpace=wrap;html=1;" parent="1" vertex="1">
          <mxGeometry x="150" y="520" width="70" height="30" as="geometry" />
        </mxCell>
        <mxCell id="bKmc23ovCByHPiUJgdwD-139" value="mail" style="rounded=0;whiteSpace=wrap;html=1;" parent="1" vertex="1">
          <mxGeometry x="220" y="520" width="70" height="30" as="geometry" />
        </mxCell>
        <mxCell id="bKmc23ovCByHPiUJgdwD-140" value="numTel" style="rounded=0;whiteSpace=wrap;html=1;" parent="1" vertex="1">
          <mxGeometry x="290" y="520" width="70" height="30" as="geometry" />
        </mxCell>
        <mxCell id="bKmc23ovCByHPiUJgdwD-175" style="edgeStyle=orthogonalEdgeStyle;rounded=0;orthogonalLoop=1;jettySize=auto;html=1;entryX=0;entryY=1;entryDx=0;entryDy=0;exitX=0.5;exitY=1;exitDx=0;exitDy=0;" parent="1" source="bKmc23ovCByHPiUJgdwD-141" target="bKmc23ovCByHPiUJgdwD-88" edge="1">
          <mxGeometry relative="1" as="geometry">
            <Array as="points">
              <mxPoint x="395" y="570" />
              <mxPoint x="490" y="570" />
              <mxPoint x="490" y="470" />
              <mxPoint x="40" y="470" />
            </Array>
          </mxGeometry>
        </mxCell>
        <mxCell id="bKmc23ovCByHPiUJgdwD-141" value="azienda" style="rounded=0;whiteSpace=wrap;html=1;fillColor=#FF3333;" parent="1" vertex="1">
          <mxGeometry x="360" y="520" width="70" height="30" as="geometry" />
        </mxCell>
        <mxCell id="bKmc23ovCByHPiUJgdwD-154" value="PREFERISCE" style="text;html=1;align=center;verticalAlign=middle;resizable=0;points=[];autosize=1;strokeColor=none;fillColor=none;" parent="1" vertex="1">
          <mxGeometry x="430" y="130" width="100" height="30" as="geometry" />
        </mxCell>
        <mxCell id="bKmc23ovCByHPiUJgdwD-160" value="ASSEGNA" style="text;html=1;align=center;verticalAlign=middle;resizable=0;points=[];autosize=1;strokeColor=none;fillColor=none;" parent="1" vertex="1">
          <mxGeometry x="430" y="250" width="80" height="30" as="geometry" />
        </mxCell>
        <mxCell id="bKmc23ovCByHPiUJgdwD-167" style="edgeStyle=orthogonalEdgeStyle;rounded=0;orthogonalLoop=1;jettySize=auto;html=1;exitX=0.5;exitY=1;exitDx=0;exitDy=0;entryX=0.5;entryY=1;entryDx=0;entryDy=0;" parent="1" source="bKmc23ovCByHPiUJgdwD-161" target="bKmc23ovCByHPiUJgdwD-1" edge="1">
          <mxGeometry relative="1" as="geometry">
            <Array as="points">
              <mxPoint x="475" y="220" />
              <mxPoint x="430" y="220" />
              <mxPoint x="430" y="110" />
              <mxPoint x="60" y="110" />
            </Array>
          </mxGeometry>
        </mxCell>
        <mxCell id="bKmc23ovCByHPiUJgdwD-161" value="IDStudente" style="rounded=0;whiteSpace=wrap;html=1;fillColor=#00FF00;" parent="1" vertex="1">
          <mxGeometry x="440" y="160" width="70" height="30" as="geometry" />
        </mxCell>
        <mxCell id="bKmc23ovCByHPiUJgdwD-172" style="edgeStyle=orthogonalEdgeStyle;rounded=0;orthogonalLoop=1;jettySize=auto;html=1;exitX=0.5;exitY=1;exitDx=0;exitDy=0;entryX=0.5;entryY=1;entryDx=0;entryDy=0;" parent="1" source="bKmc23ovCByHPiUJgdwD-162" target="bKmc23ovCByHPiUJgdwD-88" edge="1">
          <mxGeometry relative="1" as="geometry">
            <Array as="points">
              <mxPoint x="545" y="220" />
              <mxPoint x="690" y="220" />
              <mxPoint x="690" y="450" />
              <mxPoint x="60" y="450" />
            </Array>
          </mxGeometry>
        </mxCell>
        <mxCell id="bKmc23ovCByHPiUJgdwD-162" value="IDAzienda" style="rounded=0;whiteSpace=wrap;html=1;fillColor=#FF3333;" parent="1" vertex="1">
          <mxGeometry x="510" y="160" width="70" height="30" as="geometry" />
        </mxCell>
        <mxCell id="bKmc23ovCByHPiUJgdwD-168" style="edgeStyle=orthogonalEdgeStyle;rounded=0;orthogonalLoop=1;jettySize=auto;html=1;exitX=0.5;exitY=1;exitDx=0;exitDy=0;entryX=0.25;entryY=1;entryDx=0;entryDy=0;" parent="1" source="bKmc23ovCByHPiUJgdwD-163" target="bKmc23ovCByHPiUJgdwD-1" edge="1">
          <mxGeometry relative="1" as="geometry">
            <Array as="points">
              <mxPoint x="475" y="340" />
              <mxPoint x="420" y="340" />
              <mxPoint x="420" y="130" />
              <mxPoint x="50" y="130" />
            </Array>
          </mxGeometry>
        </mxCell>
        <mxCell id="bKmc23ovCByHPiUJgdwD-163" value="IDStudente" style="rounded=0;whiteSpace=wrap;html=1;fillColor=#00FF00;" parent="1" vertex="1">
          <mxGeometry x="440" y="280" width="70" height="30" as="geometry" />
        </mxCell>
        <mxCell id="bKmc23ovCByHPiUJgdwD-173" style="edgeStyle=orthogonalEdgeStyle;rounded=0;orthogonalLoop=1;jettySize=auto;html=1;exitX=0.5;exitY=1;exitDx=0;exitDy=0;entryX=0.75;entryY=1;entryDx=0;entryDy=0;" parent="1" source="bKmc23ovCByHPiUJgdwD-164" target="bKmc23ovCByHPiUJgdwD-88" edge="1">
          <mxGeometry relative="1" as="geometry">
            <Array as="points">
              <mxPoint x="545" y="480" />
              <mxPoint x="70" y="480" />
            </Array>
          </mxGeometry>
        </mxCell>
        <mxCell id="bKmc23ovCByHPiUJgdwD-164" value="IDAzienda" style="rounded=0;whiteSpace=wrap;html=1;fillColor=#FF3333;" parent="1" vertex="1">
          <mxGeometry x="510" y="280" width="70" height="30" as="geometry" />
        </mxCell>
        <mxCell id="bKmc23ovCByHPiUJgdwD-177" style="edgeStyle=orthogonalEdgeStyle;rounded=0;orthogonalLoop=1;jettySize=auto;html=1;entryX=0.5;entryY=1;entryDx=0;entryDy=0;exitX=0.5;exitY=1;exitDx=0;exitDy=0;" parent="1" source="bKmc23ovCByHPiUJgdwD-165" target="bKmc23ovCByHPiUJgdwD-112" edge="1">
          <mxGeometry relative="1" as="geometry">
            <Array as="points">
              <mxPoint x="615" y="330" />
              <mxPoint x="350" y="330" />
              <mxPoint x="350" y="240" />
              <mxPoint x="60" y="240" />
            </Array>
          </mxGeometry>
        </mxCell>
        <mxCell id="bKmc23ovCByHPiUJgdwD-165" value="IDAmminis" style="rounded=0;whiteSpace=wrap;html=1;fillColor=#66FFFF;" parent="1" vertex="1">
          <mxGeometry x="580" y="280" width="70" height="30" as="geometry" />
        </mxCell>
        <mxCell id="emnBRrmAYDnH4hSOznNv-4" style="edgeStyle=orthogonalEdgeStyle;rounded=0;orthogonalLoop=1;jettySize=auto;html=1;exitX=0.5;exitY=1;exitDx=0;exitDy=0;" edge="1" parent="1" source="emnBRrmAYDnH4hSOznNv-2">
          <mxGeometry relative="1" as="geometry">
            <mxPoint x="100" y="310" as="targetPoint" />
            <Array as="points">
              <mxPoint x="725" y="370" />
              <mxPoint x="100" y="370" />
            </Array>
          </mxGeometry>
        </mxCell>
        <mxCell id="emnBRrmAYDnH4hSOznNv-2" value="anno" style="rounded=0;whiteSpace=wrap;html=1;fillColor=#FF0080;" vertex="1" parent="1">
          <mxGeometry x="700" y="40" width="50" height="30" as="geometry" />
        </mxCell>
        <mxCell id="emnBRrmAYDnH4hSOznNv-5" value="anno" style="rounded=0;whiteSpace=wrap;html=1;fillColor=#FF0080;" vertex="1" parent="1">
          <mxGeometry x="360" y="160" width="50" height="30" as="geometry" />
        </mxCell>
        <mxCell id="emnBRrmAYDnH4hSOznNv-7" style="edgeStyle=orthogonalEdgeStyle;rounded=0;orthogonalLoop=1;jettySize=auto;html=1;" edge="1" parent="1" source="emnBRrmAYDnH4hSOznNv-5">
          <mxGeometry relative="1" as="geometry">
            <mxPoint x="125" y="310" as="targetPoint" />
            <Array as="points">
              <mxPoint x="385" y="360" />
              <mxPoint x="125" y="360" />
            </Array>
          </mxGeometry>
        </mxCell>
        <mxCell id="emnBRrmAYDnH4hSOznNv-9" value="ID" style="rounded=0;whiteSpace=wrap;html=1;" vertex="1" parent="1">
          <mxGeometry x="40" y="760" width="40" height="30" as="geometry" />
        </mxCell>
      </root>
    </mxGraphModel>
  </diagram>
</mxfile>
